<?xml version="1.0" encoding="UTF-8"?><svg id="Layer_1" xmlns="http://www.w3.org/2000/svg" viewBox="0 0 250 150"><defs><style>.cls-1{fill:#371414;}.cls-2{fill:#f2b96e;}</style></defs><path class="cls-1" d="M238.31,95.56c-.82-5.33-6.15-9.86-11.35-9.52-3.79,.24-6.75,1.78-8.24,5.51-1.12,2.82,.03,5.76,2.73,6.87,1.67,.69,3.89-.38,4.59-2.2,.65-1.68-.32-3.58-2.11-4.21-.31-.11-.75,.03-.94-.52,.98-1.19,2.33-1.55,3.8-1.46,2.12,.13,4.22,2.27,4.98,4.94,1.27,4.48-.28,8.44-4.32,11.66-3.26,2.59-8.41,2.39-11.33,.3-2.71-1.94-4.18-4.58-4.6-7.81-.71-5.36-.35-10.67,.97-15.93,1.45-5.8,3.6-11.25,7.29-16.02,.21-.27,.56-.5,.37-.9-8.17-1.09-16.06-3.12-23.7-6.79,.36,1.7,.42,3.1,.16,4.47-.8,4.19-2.49,8.08-4.16,11.97-1.73,4.05-3.85,7.9-6.3,11.55-1.3,1.95-2.68,3.89-4.62,5.31-1.66,1.21-3.4,1.75-5.39,.56-1.6-3.64-2.3-7.58-3.13-11.48-.09-.42,.14-.77,.31-1.13,2.42-5.29,5.32-10.27,9.16-14.67,2.65-3.04,5.48-5.81,9.43-7.12,.22-.07,.5-.08,.45-.53-5.25-2.12-10.74-3.52-16.44-4.61-.03,.49-.06,.84-.06,1.19-.03,1.61-.38,3.19-.85,4.7-1.15,3.67-3.06,7.01-4.86,10.39-1.56,2.93-3.67,5.41-6.06,7.67-.31,.29-.61,.65-1.23,.41,.52-8.69,2.43-17.04,6.72-24.95-6.22-1.34-12.1-2.06-18.13-1.92,3.3,20.61,4.68,27.52-1.07,59.32,6.55,1.19,13.06,2.27,19.2,5.24-6.96-10.94-8.47-22.73-7.24-35.09,.67,1.69,1.04,3.45,1.53,5.18,2.08,7.42,4.12,14.84,7.98,21.62,2.79,4.89,5.85,9.42,11.12,12.01,3.24,1.6,6.63,1.85,10.06,1.14,2.51-.52,4.57-2.01,6.36-3.87,2.32-2.41,3.65-5.15,2.83-8.55-.81-3.35-3.78-6.02-7.57-5.48-2.95,.42-5.58,3.23-4.55,6,.53,1.42,2.41,2.52,4.21,2.25,1.67-.25,2.74-1.56,2.71-3.26,0-.46-.2-.93,.03-1.39,1.34,.49,2.13,1.89,1.88,3.29-.6,3.34-5.29,5.5-8.33,3.9-1.82-.96-3.45-2.16-4.83-3.65-3.69-3.99-6.34-8.64-8.51-13.59-.11-.26-.16-.55,.26-.74,.57,.59,1.37,.88,2.1,1.27,2.95,1.56,5.8,1.62,8.66-.41,2.67-1.9,4.57-4.43,6.35-7.1,.02-.03,.03-.06,.05-.09,0,0,.02,0,.02-.01,.02-.02,.04-.04,.06-.06,.04-.04,.06-.1,.1-.15h0s.04-.05,.05-.08c.02-.03,.04-.06,.06-.09,.06-.07,.12-.13,.19-.18,.02-.01,.04-.02,.05-.03,.39-.19,.87-.13,1.31-.04,.68,.14,1.33,.37,1.92,.75,.35,.23,.69,.48,1.01,.76,.27,.16,.52,.33,.77,.53,.07,.06,.12,.12,.18,.18,.78,1.21,1.32,2.58,1.59,4.01,0,0,0,0,0,.01-.06,.99-.11,1.82-.11,2.65,0,5.88,.49,11.67,3.82,16.79,2.41,3.71,5.65,6.33,10.03,7.33,4.77,1.09,9.12,.15,13.24-2.48,4.83-3.09,7.48-7.68,8.99-12.96,.99-3.47,.96-7.03,.39-10.67Zm-35.35-8.94c-2.36-2.84-4.48-2.21-6.56,.03,3.35-5.92,6.13-11.95,7.38-18.67,1.28,.25,2.25,.44,3.33,1.07-2.12,5.56-3.1,11.4-4.15,17.58Z"/><path class="cls-1" d="M101.44,36.73c-2.77-3.36-6.67-4.48-10.8-4.99-.41-.05-.85-.01-1.25-.07,0,0,0,0-.01,0-.04,0-.08,0-.12,0-.11,0-.21,0-.32,0-.22,0-.44,0-.66,0-.23,0-.45,0-.68,0-.11,0-.21,0-.32,0-.01,0-.02,0-.03,0-3.15,.35-6.04,1.61-8.83,2.99-3.39,1.67-6.26,4.11-8.78,6.94-1.91,2.15-3.58,4.45-5.16,6.86-3.83,5.82-6.11,12.14-7.02,19.04-.83,6.37-.83,12.74-.57,19.12,.2,4.95,.64,9.88,1.34,14.78,.23,1.63,.28,3.28,.42,4.92-.14,.02-.29,.05-.43,.07-6.5-13.19-8.65-27.38-9.26-42.12-3.76,.66-7.36,1.22-11.35,1.52,2.08,14.45,1.76,28.63-3.14,42.47-1.83-6.83-2.48-13.84-3.47-20.79-.99-6.99-1.49-14.03-.69-21.27-6.5,.58-12.67-1.26-19.02-1.34,1.48,1.35,3.02,2.55,4.24,4.07,4.37,5.45,6.42,11.93,8.06,18.56,.58,2.34,.93,4.74,1.23,7.14,.89,7.06,1.65,14.11,1.38,21.25-.06,1.63-.54,3.22-.4,4.83,2.37,1.43,13.94,2.6,16.16,1.63,.03-4.85,.71-9.67,1.19-14.51,.49-4.86,1.65-9.6,2.42-14.47,3.75,9.02,6.49,18.29,8.48,27.9,4.99,0,9.63-.73,13.84-3.46-.15-.68-.29-1.25-.41-1.84-.62-3.08-1.42-6.14-1.81-9.25-1-8.06-1.22-16.16-.41-24.26,.49-4.93,1.4-9.8,2.71-14.58,.73-2.66,1.92-5.15,3.11-7.64,1.76-3.69,3.75-7.2,6.47-10.3,2.37-2.7,5.15-4.8,8.39-6.22,2.98-1.31,6.05-1.58,8.72,.82,2.33,2.1,1.63,5.94-1.26,7.14-.63,.26-1.34,.53-2.01-.13,.73-1.03,1.34-2.07,.9-3.34-.48-1.4-2.43-2.42-3.91-2.08-1.68,.38-2.83,1.98-2.63,3.64,.34,2.8,2.89,4.92,6.06,5.09,3.72,.2,6.67-1.33,9.01-4.09,3.59-4.23,4.42-9.42,.6-14.06Z"/><path class="cls-1" d="M146.46,106.86c-1.66-6.51-2.92-13.09-3.46-19.8-.18-2.26-.75-4.57-.44-6.77,.43-3.09,.39-6.19,.6-9.28,.45-6.44,.92-12.82,3.62-18.8,.11-.24,.25-.52-.09-.92-5.62-.4-11.31-.11-17.17,.89,.21,.56,.32,.9,.47,1.23,1.91,4.4,3.32,8.99,4.35,13.64,1.18,5.33,1.93,10.77,1.88,16.26,0,.26,.03,.52,.07,.77,.19,2.38-.11,4.75-.85,6.99,0,0,0,0-.01,0-7.4-11.47-14.21-23.27-15.77-37.52-5.88,.65-11.18,2.56-16.75,3.9,1.81,3,3.24,5.94,4.27,9.05,2.07,6.26,2.47,12.75,2.49,19.28,.01,4.56-.39,9.09-1.18,13.58-.86,4.9-2.1,9.69-4.63,14.04-.49,.85-1.03,1.67-1.62,2.62,6.62-1.84,13.02-3.85,19.55-5.36-3.35-10.9-5.7-21.85-5.75-33.22-.05-.17,.04-.35,.07-.55,.03-.21,.05-.4,.64-.46,7.22,9.78,11.46,20.96,13.78,32.96,5.61,.27,11.11,.53,16.62,.8,.17-1.35-.43-2.31-.69-3.34Z"/><path class="cls-1" d="M102.6,77.72c-.17-2.69-.88-5.28-1.56-7.87-1.07-4.06-2.76-7.77-5.88-10.78-3.39-3.28-9.29-3.51-12.94,.6-2.68,3.02-4.45,6.62-5.83,10.38-1.7,4.64-2.47,9.51-2.91,14.41-.76,8.4,.14,16.59,3.55,24.38,1.26,2.88,3.03,5.46,5.79,7.17,2.44,1.52,5.04,1.89,7.77,.84,2.88-1.1,5.03-3.08,6.65-5.63,1.86-2.92,3.15-6.1,4.23-10.24,.46-1.84,1.05-4.48,1.34-7.19,.58-5.37,.12-10.72-.22-16.08Zm-7.6,10.71c0,.35-.13,.7-.13,1.02-.1,3.9-.65,7.71-2.24,11.32-.49,1.11-1.02,2.2-2.13,2.8-2.09,1.13-4.03,.44-5.22-1.71-1.06-1.92-1.62-4-2.03-6.12-1.01-5.25-1.21-10.53-.45-15.85,.43-3.06,.97-6.07,2.27-8.9,.64-1.39,1.43-2.67,2.75-3.55,1.37-.91,2.43-.81,3.43,.51,1.39,1.84,2.3,3.95,2.77,6.18,.32,1.53,.8,3.07,.77,5,.17,.6,.18,1.25,.15,1.88-.02,.5-.08,.99-.1,1.48,0,0,0,.02,0,.02,.01,.33,.02,.67,.03,1,.03,.36,.08,.71,.11,1.07,.09,.83,.13,1.65,.1,2.47,.01,.46,0,.92-.08,1.37Z"/><path class="cls-2" d="M46.71,46.27c-.33-.84-.55-1.72-.73-2.6-.98-4.96-1.74-9.92-2.11-14.97-.19-2.57-.31-5.14-.32-7.73,0-1.57-.06-3.2,.28-4.75,.08-2,.23-3.99,.44-5.98,.08-.42,.16-.84,.25-1.26,.08-.36-.03-.65-.22-.87,0-.04,0-.08-.01-.12-.07-.04-.14-.06-.22-.09-.23-.15-.51-.2-.78-.16-.19,0-.39,0-.58,0-3.27,.11-6.55,.15-9.82,.36-4.36,.28-8.65,.98-12.8,2.4-.47,.16-.91,.31-1.02,1.04,4.22,12.43,6.34,25.41,7.2,38.65,7.16,.03,13.94-.76,20.72-2.36-.04-.53-.14-1.02-.26-1.5-.01-.03-.02-.05-.03-.08Z"/><path class="cls-2" d="M20.29,51.78c2.81,1.96,5.65,3.53,8.74,4.69,3.32,1.24,6.7,1.36,10.14,1.01,2.15-.22,4.27-.67,6.26-1.53,1.63-.7,2.65-2.23,3.98-3.35,1.1-.93,1.76-2.24,2.59-3.37,2.04,.86,3.28,3.02,2.89,5.01-.14,.7-.57,1.18-1.18,1.57-3.43,2.2-7.23,3.3-11.23,3.82-5.94,.77-11.86,.48-17.76-.38-1.84-.27-3.62-.94-5.4-1.51-1.16-.37-1.62-1.34-1.27-2.57,.37-1.32,1.02-2.47,2.25-3.38Z"/><g><path class="cls-2" d="M87.53,128.13c-.47-.34-1.14-.4-1.93-.12-1.58,.55-2.75,2.18-2.79,3.83-.05,1.65,1.06,2.41,2.63,1.85,.79-.28,1.48-.8,1.97-1.48,.7,.5,1.41,1,2.12,1.51-1.09,1.43-2.57,2.61-4.18,3.18-3.2,1.13-5.68-.53-5.59-3.87,.09-3.34,2.73-7.1,5.93-8.22,1.59-.56,3.02-.37,4.05,.39-.74,.97-1.48,1.95-2.21,2.94Z"/><path class="cls-2" d="M95.26,121.82c-.04,1.43-.08,2.86-.12,4.29,1.25-.34,2.5-.67,3.76-.98,.04-1.43,.08-2.86,.12-4.29,1.04-.25,2.08-.5,3.13-.73-.12,4.02-.23,8.03-.35,12.05-1.04,.23-2.09,.48-3.13,.74,.04-1.53,.09-3.06,.13-4.6-1.26,.31-2.51,.64-3.76,.98-.04,1.53-.09,3.07-.13,4.6-1.03,.29-2.07,.58-3.09,.89,.11-4.02,.23-8.05,.34-12.07,1.03-.31,2.06-.6,3.1-.88Z"/><path class="cls-2" d="M110.31,118.56c3.33-.54,5.96,1.87,5.86,5.18-.1,3.32-2.89,6.3-6.22,6.84-3.32,.54-5.91-1.57-5.81-4.9,.1-3.32,2.84-6.6,6.17-7.13Zm-.09,3.14c-1.57,.25-2.89,1.77-2.94,3.36-.05,1.57,1.2,2.63,2.77,2.38,1.59-.26,2.92-1.74,2.96-3.31,.05-1.59-1.21-2.69-2.8-2.43Z"/><path class="cls-2" d="M126.05,120.88c-.49-.47-1.19-.72-2.02-.67-1.66,.1-2.89,1.39-2.94,3.03-.05,1.63,1.12,2.71,2.77,2.6,.83-.05,1.55-.38,2.07-.92,.74,.7,1.47,1.4,2.21,2.11-1.14,1.12-2.69,1.88-4.37,1.99-3.36,.22-6-2.16-5.9-5.48,.1-3.31,2.9-6.31,6.26-6.51,1.67-.11,3.16,.49,4.24,1.54-.77,.76-1.54,1.54-2.31,2.31Z"/><path class="cls-2" d="M130.89,116.76c1.07-.02,2.14-.02,3.21-.01-.09,2.94-.18,5.87-.26,8.81,1.47,0,2.93,.04,4.4,.09-.03,1.05-.06,2.1-.09,3.16-2.54-.09-5.07-.11-7.6-.06,.12-3.99,.24-7.98,.36-11.97Z"/><path class="cls-2" d="M146.15,117.33c3.37,.3,6.01,3.37,5.91,6.65-.1,3.29-2.9,5.57-6.27,5.28-3.37-.3-6.01-3.06-5.91-6.36,.1-3.3,2.9-5.88,6.27-5.57Zm-.09,3.12c-1.59-.14-2.93,1.05-2.98,2.62-.05,1.56,1.22,2.94,2.81,3.08,1.61,.14,2.95-1,3-2.56,.05-1.57-1.21-2.99-2.83-3.14Z"/><path class="cls-2" d="M153.31,130.12c2.01-3.71,4.02-7.37,6.02-11,.48,.09,.96,.18,1.44,.27,1.78,4.33,3.55,8.7,5.32,13.1-1.05-.24-2.11-.48-3.16-.7-.23-.57-.46-1.14-.69-1.71-1.65-.34-3.3-.64-4.95-.92-.26,.48-.52,.96-.77,1.44-1.06-.17-2.13-.33-3.19-.48Zm5.29-3.37c.82,.15,1.65,.3,2.47,.46-.38-.95-.76-1.9-1.15-2.85-.44,.8-.88,1.59-1.32,2.39Z"/><path class="cls-2" d="M166.99,120.72c3.16,.75,6.3,1.61,9.41,2.58-.03,1.03-.06,2.07-.09,3.1-1.05-.32-2.1-.64-3.16-.94-.09,2.93-.17,5.86-.26,8.78-1.04-.3-2.09-.58-3.14-.85,.09-2.93,.17-5.86,.26-8.79-1.04-.27-2.08-.53-3.12-.78,.03-1.04,.06-2.07,.09-3.11Z"/><path class="cls-2" d="M178.55,123.99c2.45,.8,4.88,1.67,7.3,2.6-.02,.86-.05,1.72-.07,2.57-1.4-.54-2.8-1.05-4.2-1.55-.02,.64-.04,1.28-.06,1.93,1.24,.44,2.49,.89,3.72,1.36-.03,.87-.05,1.75-.08,2.62-1.24-.47-2.48-.92-3.72-1.36-.02,.73-.04,1.45-.06,2.18,1.41,.49,2.81,1,4.21,1.54-.02,.85-.05,1.69-.07,2.54-2.42-.93-4.86-1.79-7.31-2.58,.12-3.95,.23-7.9,.35-11.86Z"/><path class="cls-2" d="M192.21,132.88c.01-.49-.37-1.07-.85-1.28-.48-.21-.87,.04-.89,.53-.01,.49,.36,1.05,.84,1.25,1.12,.49,2.12,1.49,2.74,2.63,.47,.85,.72,1.77,.7,2.63-.06,2.02-1.67,2.89-3.64,2.04-1.97-.85-3.52-3.07-3.46-5.16,.9,.36,1.81,.73,2.71,1.11-.01,.5,.36,1.06,.84,1.27,.48,.21,.89-.01,.9-.5,.01-.49-.37-1.07-.85-1.28-1.97-.85-3.51-3.09-3.45-5.11,.06-2.02,1.69-3.01,3.66-2.16,1.97,.85,3.49,3.2,3.44,5.21-.89-.41-1.77-.81-2.66-1.2Z"/></g></svg>