<?xml version="1.0" encoding="UTF-8"?>
<svg id="Layer_1" xmlns="http://www.w3.org/2000/svg" viewBox="0 0 551.86 693.67">
<defs>
<style>
.cls-1 {
  fill:#5e2919;
}</style>
</defs>
<path class="cls-1" 
d="m536.77,649.42c-21.86-22.8-46.75-42.8-73.6-59.44-.81-.5-1.66-.9-2.54-1.26-3.41-3.51-6.89-6.94-10.48-10.27-22.38-12.24-43.77-26.2-64.01-41.71-.14-.69,0-1.47.41-2.33.05-.36.14-.71.23-1.05.39-.71.6-1.53.97-2.25.87-1.68,1.36-3.63,3.32-4.51,1.25-2.3,2.49-4.61,3.74-6.91.62-.1,1.21,0,1.6.53,1.9,2.58,4.55,3.05,7.5,2.69,1.87,1.94,3.33-.23,4.97-.49.71-1.03,1.89-.89,2.9-1.14,1.14-.28,2.36-.37,2.76-1.78-.03-.02-.07-.05-.1-.07,0,0,0,0,.01,0,.14-.26.22-.66.44-.77,5.89-3.04,7.49-10.74,14.13-12.97.29-.1.35-.81.65-.97,1.78-.93,2.29-3.24,3.97-4.26.27.05.53.11.79.21.42.14.84.22,1.28.18.08-.01.15-.03.22-.05.89.74,1.77.79,2.47-.51.43-.8,1.01-1.31,1.68-1.67.67-.28,1.39-.41,2.22-.23.29.03.58.05.86.05.04,0,.09,0,.13.01,2.43,1.6,5.23.68,7.24-2.46.01,0,.02-.01.03-.02.08-.13.15-.26.23-.39.19-.9.76-1.4,1.64-1.58,2.02-.41,2.03-2.21,1.5-3.31-1.01-2.09-2.01-4.49-5.12-4.45-2.42.03-4.51-1.7-5.3-3.41-1.61-3.51-2.25-7.46-3.42-11.19-.85-2.72.28-5.88-2.59-8.33-.81-.69-2.21-3.56-1.44-6.05,1.24-4.01,2.23-8.16-.23-12.16h0c.14-.24.28-.48.43-.73,0,0,0,0,0,0,.33-.46.65-.92.98-1.38,1.9-1.68,2.63-6.07,6.66-2.89.08.06.34-.12.76-.28-.48-2-2.28-3.86-1.12-6.15,0,0,.01-.02.01-.02,0,0,0,0,0,0,.82-1.44.46-3.12.93-4.63,0,0,0,0,0,0,0,0,0,0,0,0l.6-.15c1.26-1.53,2.94-2.7,3.88-4.5.76-1.44.12-2.45-1.26-1.89-2.4.99-2.82-.17-3.01-2.04,0,0-.1-.06-.1-.06,0-.01.01-.02.02-.03.03.03.05.07.08.1,1.65-.39,3.36-.54,4.4-2.27.59-.99,1.72-.86,2.75-.56,2.59.76,3.2-.89,3.41-2.89.34-3.26.61-6.51,1.34-9.74.33-1.47,1.7-3.45-.44-4.85-.2.04-.4.08-.61.12-1.85-.35-1.45-3.75-3.94-3.07-2.72.75-3.18-1.21-3.94-2.91-.37-.81-.37-1.76-1.15-2.42-.59-.5-2.04-.85-.96-1.99.76-.8,1.55-2.03,3.06-1.28,1.11.55,2.27.88,3.52.52h0s0,0,0,0c2.68-1.42,5.54.46,8.25-.35,0,0,0,.02.01.02,1.4,1.26,2.77.87,4.11-.1,1.68-1.22,1.32-2.83.42-4.55,2.31.31,4.21.07,6.12-.02.28-.08.54-.19.79-.35.76-.93,1.45-1.78,2.89-1.9,1.53-.13,2.16-1.47,2.12-2.89-.05-1.71-.06-3.55-1.68-4.66-1.48-1.01-1.63,1.23-2.63,1.47-1.17-1.96.11-2.68,1.27-3.6,2.32-1.83,2.3-3.58.06-5.48-.77-.66-1.67-1.15-2.45-1.79-1.68-1.35-2.47-3.11-2.94-5.64,1.43.93,1.86,1.91,2.68,2.52.79.59,1.72,1,2.48.24,1.59-1.59,3.27-3.6,2.67-5.79-.58-2.1-.28-3.72.51-5.49-.09-.42-.18-.84-.26-1.27-.04-1.52-1.03-2.16-2.35-2.27-1.35-.11-2.35-.72-2.87-1.88-.86-1.91-2.16-3.31-3.96-4.36-1.67-.98-1.16-2.14.02-3.13.51-.43,1.38-.37,1.74-1.1t0,0c1.12-.62,2.57.36,3.58-.74h0c5.19-1.76,9.72-4.65,13.65-8.4,4.08-3.9,6.29-8.55,4.74-14.37-.05-.47-.1-.94-.16-1.41-2.28-3.49-5.7-5.38-9.49-6.73-.33-.1-.67-.16-1.01-.19.29-.05.61,0,1.01.19-.44-.33-.89-.65-1.33-.98-1.77-.01-3.37-1.08-5.18-.79h0s0,0,0,0c-2.61-.31-5.37-1.32-7.8-.8-8.4,1.8-16.94,2.24-25.42,3.19-.2-26.63,3.14-53.13,8.15-79.28.34-1.77.68-3.53,1.04-5.3.12-.62.43-2.14.58-2.85.74-3.54,1.5-7.07,2.28-10.6,1.7-7.65,3.47-15.28,5.28-22.9,3.48-14.66,7.07-29.3,10.43-43.99,4.05-17.73,8.54-35.68,9.77-53.87,0-.05,0-.09,0-.14,1.4-6,.09-12.48-4.32-17.66-21.68-25.49-57.08-29.34-87.84-35.54-34.54-6.97-69.07-13.94-103.61-20.91-18.37-3.71-36.8-7.5-55.63-7.54-1.12,0-2.23.09-3.34.25-.72,0-1.43.07-2.13.21-.58.06-1.11.21-1.57.43-1.12.38-2.21.9-3.27,1.47-1.11.54-2.17,1.16-3.17,1.86-.05.03-.1.06-.15.09-3.75,2.28-7.03,4.83-9.76,8.22-9.08,10.31-13.19,25.51-15.27,39.88-.54,2.99-.94,6-1.23,9.02-4.63,20.14-5.52,41.23-7.59,62.04-3.52,35.3-10.34,70.15-17.3,104.9-1.78,1.44-3.9,2.25-5.98,3.14-11.8-6.14-26.48-6.69-39.45-1.15-.8.34-1.55.75-2.27,1.21-3.25,1.11-6.51,2.12-9.49,4.53-3.86,3.11-5.47,6.65-6.41,10.98-1.19,5.44.94,10.45,2.92,15.19.85,2.04,1.59,4.79,3.94,6.15h0c.8,1.47,1.4,3.08,2.43,4.37,2.62,3.29,5.17,6.69,8.87,8.92.88,1.15,1.3,2.02.17,3.57-.91,1.25-2.17,2.03-3.06,3.2,0,0,0,0,0,0-.83,2.14-1.76,4.22-3.25,6-1.17,1.39-.65,1.96,1.02,1.85-.62,3.17-1.33,6.04-5.55,6.34-1.03.07-3.8.13-3.23,2.88.93.9,2.17,1.71.59,3.11-.54.48-.07,1.07,0,1.64.24,2.26.75,4.34,2.74,5.73h0c-.6.72-1.28,1.26-2.25,1.41-.96.15-2.26.17-1.89,1.7.35,1.49,1.48,2.1,2.98,1.98.92-.07,1.67-.89,3.44-.81-3.17,1.23-5.33,2.28-4.36,5.73.31,1.08-.15,2.46-1.87,3.3-1.63.79-3.17,2.38-3.27,4.75-.03.68-.14,1.32-.29,1.94-1.05.98-2.02,2.07-2.87,3.29-.87,1.25-1.73,2.75-2.36,4.25-.04-1.12.03-2.09-.95-2.77-.9-.36-1.79-.52-2.63.17-.39,1.19-.08,2.4.07,3.56.09.73.42,1.47.9,2.14-.34-.15-.69-.29-1.01-.46-1.3-.69-2.04-.24-2.13,1.36-.2,3.48-.87,3.82-3.63,2.07-1.67-1.06-4.73-.77-5.17.65-.74,2.34.92,3.28,2.77,3.85,1.56.48,2.5,1.46,3.17,2.92-.77.43-1.38.25-1.96.27-1.14.04-2.38.13-2.62,1.51-.2,1.15.35,2.2,1.23,2.96.73.63,1.67.53,2.6.52,2.58-.03,5.31-1.48,7.7.84.23.23.55.24.87.13.85,2.3,2.11,4.43,3.78,6.28.28,3.21,1.16,6.32,2.76,9.18-.13.25-.3.51-.55.77-.69.74-.85,2.29-.15,4.03,1.09,2.71,3.72,3.59,5.03,5.83.69,1.18.49,3.68,2.5,3.26,1.8-.38.32-2.47.58-3.75.07-.33.17-.7.27-1.07.62.53,1.26,1.02,1.92,1.48.35.64.74,1.26,1.16,1.86.29.51.59,1,.92,1.48-.54.98-.96,2.15-2.69,1.75-.76-.18-1.21,1.44-.83,2.52.3.85.69,1.67,1.04,2.5.32-.48.64-.95.96-1.43.57,1.8.82,3.88,2.43,4.96,1.64,1.1,3.45,1.61,3.5,4.15.02,1.02,1.46,1.23,2.51,1.25,1.24.02,2.25.45,2.53,1.73,1.08,4.8,3.37,8.91,6.53,12.56-.34-.07-.68,0-1.02.36-.32-.07-.68-.1-1.07-.05-2.12,1.01-1.67,2.53-.8,4.13.29-.04.55-.05.79-.05-.05.1-.13.19-.25.26-.2.23-.19.44.04.64-1.51,4.34,2.11,8.75-.16,13.11-.09.17.37.64.6.95,1.5,2.05.73,3.14-1.53,3.53-2.49.43-3.05,1.64-1.7,3.78.16.25.24.54.31.83-.1,0-.2-.01-.3-.01-2.82-.03-5.62-.56-8.45-.06-3.44.61-4.93,3.63-3.07,6.5.82,1.27,1.45,2.76,2.49,3.79,1.68,1.65,1.89,3.44,1.43,5.55-.23,1.06-.66,2.2.51,3.05,3.68.97,2.04,4.45,2.98,6.68.82,1.95-.18,4.64,2.61,5.81.91.38.83,1.48,1.05,2.32-.07.05-.14.11-.2.2-.14.3-.21.62-.21.95.02.06.05.12.07.18-.23.45-.3.92.07,1.19.36.26.63.57.86.9.65,1.38,1.26,2.77,1.3,4.36,1.91,3.74,2.5,7.85,3.16,11.91.32,1.97.95,3.44,2.91,4.12,3.09,1,3.1,4.42,5.03,6.39-.88-.77-1.81-1.35-3.01-1.36-1.4-.01-2.96-.14-2.66,2.07,1.5.51,3.57-.24,4.52,1.5-1.64-.37-2.87.46-2.62,2.01.52,3.24.77,6.65,2.83,9.46,3.57,4.86,3.6,4.87.32,10.2-1.01,1.64-.75,2.67,1.19,3.05.69.14,1.39.24,2.05.51.11.04.22.11.32.16-21.09,13.1-39.92,29.79-58.16,46.65-.75.26-1.5.54-2.25.86-22.31,9.55-42.51,24.94-57.69,43.87-1.95,2.43-3.5,4.97-4.49,7.63-2.63,3.97-4.56,8.39-5.54,13.07-2.71,12.99,5.72,24.82,19.29,25.32,127.93,4.72,256,5.68,383.99,2.82,36.47-.82,72.94-1.94,109.39-3.37,17.32-.68,26.38-21.38,14.14-34.14Z"/>
<rect class="cls-1" 
x="423.93" 
y="170.51" 
width="0" 
height="0" 
transform="translate(-24.99 85.28) rotate(-11.16)"/>
</svg>